<?xml version="1.0" encoding="utf-8"?>
<!-- Generator: Adobe Illustrator 24.0.0, SVG Export Plug-In . SVG Version: 6.00 Build 0)  -->
<svg version="1.1" id="Capa_1" xmlns="http://www.w3.org/2000/svg" xmlns:xlink="http://www.w3.org/1999/xlink" x="0px" y="0px"
	 viewBox="0 0 30.3 30.3" style="enable-background:new 0 0 30.3 30.3;" xml:space="preserve">
<style type="text/css">
	.st0{fill:#FFFFFF;}
	.st1{clip-path:url(#SVGID_2_);fill:#303030;}
</style>
<g>
	<circle class="st0" cx="15.3" cy="14.6" r="11.1"/>
	<g>
		<g>
			<defs>
				<rect id="SVGID_1_" x="0.4" y="0.3" width="29.5" height="29.7"/>
			</defs>
			<clipPath id="SVGID_2_">
				<use xlink:href="#SVGID_1_"  style="overflow:visible;"/>
			</clipPath>
			<path class="st1" d="M15.2,0.3C7,0.3,0.4,6.9,0.4,15.1c0,8.2,6.6,14.8,14.8,14.8c8.2,0,14.8-6.6,14.8-14.8
				C29.9,6.9,23.3,0.3,15.2,0.3L15.2,0.3z M15.2,5.5l8.7,5.5H6.4L15.2,5.5z M24,19.7L24,19.7c0,0.9-0.7,1.6-1.6,1.6H7.9
				c-0.9,0-1.6-0.7-1.6-1.6v-8.4c0-0.1,0-0.2,0-0.3l8.4,5.2c0,0,0,0,0,0c0,0,0,0,0,0c0.1,0,0.1,0.1,0.2,0.1c0,0,0,0,0,0
				c0.1,0,0.1,0,0.2,0h0c0.1,0,0.1,0,0.2,0c0,0,0,0,0,0c0.1,0,0.1,0,0.2-0.1c0,0,0,0,0,0c0,0,0,0,0,0L24,11c0,0.1,0,0.2,0,0.3V19.7z
				 M24,19.7"/>
		</g>
	</g>
</g>
</svg>
