<?xml version="1.0" encoding="utf-8"?>
<!-- Generator: Adobe Illustrator 24.0.0, SVG Export Plug-In . SVG Version: 6.00 Build 0)  -->
<svg version="1.1" id="Capa_1" xmlns="http://www.w3.org/2000/svg" xmlns:xlink="http://www.w3.org/1999/xlink" x="0px" y="0px"
	 viewBox="0 0 30.3 30.3" style="enable-background:new 0 0 30.3 30.3;" xml:space="preserve">
<style type="text/css">
	.st0{fill:#FFFFFF;}
	.st1{fill:#303030;}
</style>
<g>
	<circle class="st0" cx="15.3" cy="15.5" r="11.2"/>
	<g>
		<g>
			<path class="st1" d="M20.5,16.6c0.2,0.7-1.6,0.4-2.1,1.1c-0.4,0.6-1.5,0.2-1.8,0.1c-0.3-0.1-1.2,0.3-1.1-0.4
				c0.1-0.7,0.7-0.7,1.3-1c0.6-0.3,1.5-1.2,1.1-1.3c-2.1-0.6-2.8-2.5-2.8-2.5c-0.1,0-0.1-1.4-0.6-1.4c-0.5,0-0.8,0.2-1.6,0
				c-0.8-0.2-0.6-0.7-0.8-1.8c-0.1-1.1,0.3-0.7,0.6-1.1c0,0,0.1-0.1,0.1-0.1c-2.9,1-5,3.8-5,7c0,0,0,0,0,0c0.5,0,1.5,0.1,1.6,0.5
				c0.1,0.5,0,1.2,0.4,1.3c0.4,0.2,0.6-0.8,1-0.5c0.4,0.3,1.4,0.5,1.4,1c0,0.5-0.2,1.2,0,1.3c0.2,0.1,1,1,1,1.2c0,0.1,0.3,0.8,0.2,1
				c-0.1,0.2-0.4,0.8-0.7,1.1c0.8,0.3,1.7,0.5,2.6,0.5c4.1,0,7.4-3.3,7.4-7.4c0-1.2-0.3-2.3-0.8-3.4c0,0.8,0,1.4,0.2,1.7
				C22.6,14.4,20.2,15.1,20.5,16.6L20.5,16.6z M20.5,16.6"/>
			<path class="st1" d="M15.1,0.3C7,0.3,0.3,7,0.3,15.1C0.3,23.3,7,30,15.1,30C23.3,30,30,23.3,30,15.1C30,7,23.3,0.3,15.1,0.3
				L15.1,0.3z M15.1,24.1c-4.9,0-8.9-4-8.9-8.9c0-4.9,4-8.9,8.9-8.9c4.9,0,8.9,4,8.9,8.9C24.1,20.1,20.1,24.1,15.1,24.1L15.1,24.1z
				 M15.1,24.1"/>
		</g>
	</g>
</g>
</svg>
