<?xml version="1.0" encoding="utf-8"?>
<!-- Generator: Adobe Illustrator 24.0.0, SVG Export Plug-In . SVG Version: 6.00 Build 0)  -->
<svg version="1.1" id="Capa_1" xmlns="http://www.w3.org/2000/svg" xmlns:xlink="http://www.w3.org/1999/xlink" x="0px" y="0px"
	 viewBox="0 0 30.3 30.3" style="enable-background:new 0 0 30.3 30.3;" xml:space="preserve">
<style type="text/css">
	.st0{fill:#FFFFFF;}
	.st1{clip-path:url(#SVGID_2_);fill:#303030;}
	.st2{fill:#303030;}
</style>
<g>
	<circle class="st0" cx="15.8" cy="14.9" r="12"/>
	<g>
		<g>
			<defs>
				<rect id="SVGID_1_" x="0.4" y="0.3" width="29.5" height="29.7"/>
			</defs>
			<clipPath id="SVGID_2_">
				<use xlink:href="#SVGID_1_"  style="overflow:visible;"/>
			</clipPath>
			<path class="st1" d="M15.2,0.3C7,0.3,0.4,6.9,0.4,15.1c0,8.2,6.6,14.8,14.8,14.8c8.2,0,14.8-6.6,14.8-14.8
				C29.9,6.9,23.3,0.3,15.2,0.3L15.2,0.3z M21.2,21.7v1c0,0.6-0.5,1-1,1H9.9c-1.1,0-2-0.9-2-2V8.8c0-1.1,0.9-2,2-2h10.2
				c0.6,0,1,0.5,1,1V21.7z M23.2,8.8v13.9c0,0.6-0.5,1-1,1h-0.3c0.2-0.3,0.3-0.7,0.3-1V7.8c0-0.4-0.1-0.7-0.3-1h0.3c0.6,0,1,0.5,1,1
				V8.8z M23.2,8.8"/>
		</g>
		<path class="st2" d="M17.7,16.6c0,0-0.4-0.5-0.8-0.1c-0.3,0.2-0.9,0.8-1,0.9c0,0-1-0.5-1.5-1c-0.8-0.7-1.4-1.5-1.7-2l-0.2-0.4
			c0.1-0.1,0.7-0.7,0.9-1c0.3-0.4-0.1-0.8-0.1-0.8s-1.3-1.3-1.6-1.6c-0.3-0.3-0.6-0.1-0.6-0.1c-0.6,0.4-1.3,0.8-1.3,2.4
			c0,1.6,1.2,3.2,2.5,4.5c1.3,1.4,3.1,2.8,4.8,2.8c1.7,0,2-0.7,2.4-1.3c0,0,0.1-0.3-0.1-0.6C19,17.9,17.7,16.6,17.7,16.6L17.7,16.6z
			 M17.7,16.6"/>
	</g>
</g>
</svg>
