<?xml version="1.0" encoding="utf-8"?>
<!-- Generator: Adobe Illustrator 24.0.0, SVG Export Plug-In . SVG Version: 6.00 Build 0)  -->
<svg version="1.1" id="Capa_1" xmlns="http://www.w3.org/2000/svg" xmlns:xlink="http://www.w3.org/1999/xlink" x="0px" y="0px"
	 viewBox="0 0 109.5 70.3" style="enable-background:new 0 0 109.5 70.3;" xml:space="preserve">
<style type="text/css">
	.st0{fill:#3EC4F1;}
</style>
<g>
	<path class="st0" d="M-60,101.3l-0.5-0.2c0-0.1,2.8-5.9,8.6-13.1c5.3-6.7,14.4-15.9,27.3-22.1c11.5-5.5,22.5-8.1,32.7-7.7
		c3.1,0.1,5.8,0.5,8,1.1c-1.1-2.4-1.7-5.1-1.2-7.6c1-4.8,5.7-8,14.2-9.4C63,36.2,84.6,24,96.7,14.7C109.8,4.7,114.9-4,115-4.1
		l0.5,0.3c-0.1,0.1-5.2,8.9-18.4,19c-7.7,5.9-16.7,11.1-26.6,15.5C58.1,36,44.2,40.1,29.1,42.7c-8.2,1.4-12.8,4.5-13.7,9
		c-0.5,2.5,0.2,5.2,1.4,7.6c4.3,1.1,6.9,2.6,7.9,3.2c3.5,2.3,4.6,4.6,3.8,5.8c-0.6,0.9-2.6,1.2-6-0.9c-1.3-0.8-4.2-3.9-6.1-7.6
		c-2.3-0.6-5.1-1-8.4-1.2c-10-0.4-20.9,2.1-32.4,7.6C-48.9,78-59.9,101-60,101.3z M17.1,60c1.9,3.5,4.6,6.2,5.7,6.9
		c2.9,1.8,4.7,1.8,5.2,1.1c0.5-0.8-0.3-2.8-3.7-5C23.4,62.5,21.1,61.1,17.1,60z"/>
</g>
</svg>
