<?xml version="1.0" encoding="utf-8"?>
<!-- Generator: Adobe Illustrator 24.0.0, SVG Export Plug-In . SVG Version: 6.00 Build 0)  -->
<svg version="1.1" id="Capa_1" xmlns="http://www.w3.org/2000/svg" xmlns:xlink="http://www.w3.org/1999/xlink" x="0px" y="0px"
	 viewBox="0 0 109.5 25" style="enable-background:new 0 0 109.5 25;" xml:space="preserve">
<style type="text/css">
	.st0{fill:#3EC4F1;}
</style>
<g>
	<path class="st0" d="M-8.9,28.4l-0.2-0.2c0,0,2.7-2.7,7.2-5.6c4.2-2.7,11-6.2,19.5-7.4c7.5-1.1,14.2-0.8,19.9,1.1
		c1.8,0.6,3.2,1.2,4.4,1.8c-0.2-1.5-0.1-3,0.7-4.2c1.4-2.4,4.7-3.3,9.7-2.8c20.3,2.2,34.8-0.9,43.3-3.9c9.2-3.3,13.7-7.1,13.8-7.1
		l0.2,0.2c0,0-4.6,3.9-13.9,7.2c-5.4,1.9-11.5,3.3-17.8,4c-8,0.9-16.6,0.9-25.6-0.1c-4.9-0.5-8.1,0.3-9.4,2.6
		c-0.8,1.3-0.8,2.8-0.6,4.3c2.2,1.3,3.4,2.5,3.9,2.9c1.6,1.7,1.7,3.2,1.1,3.6c-0.5,0.4-1.6,0.2-3.2-1.4c-0.6-0.7-1.7-2.7-2.1-5
		c-1.2-0.7-2.7-1.3-4.5-1.9c-5.6-1.8-12.2-2.2-19.7-1c-8.4,1.2-15.1,4.7-19.3,7.4C-6.2,25.7-8.8,28.4-8.9,28.4z M42.3,18.6
		c0.4,2.2,1.4,4.1,1.9,4.6c1.3,1.4,2.3,1.7,2.8,1.4c0.5-0.4,0.2-1.7-1.1-3.3C45.4,20.9,44.3,19.8,42.3,18.6z"/>
</g>
</svg>
