<?xml version="1.0" encoding="utf-8"?>
<!-- Generator: Adobe Illustrator 24.0.0, SVG Export Plug-In . SVG Version: 6.00 Build 0)  -->
<svg version="1.1" id="Capa_1" xmlns="http://www.w3.org/2000/svg" xmlns:xlink="http://www.w3.org/1999/xlink" x="0px" y="0px"
	 viewBox="0 0 114.3 60.3" style="enable-background:new 0 0 114.3 60.3;" xml:space="preserve">
<style type="text/css">
	.st0{fill:#606060;}
	.st1{fill:#3EC4F1;}
	.st2{fill:#FEE608;}
	.st3{fill:#FF204F;}
	.st4{fill:#0EE685;}
</style>
<g>
	<g>
		<g>
			<g>
				<path class="st0" d="M29.5,37.8c-0.2,0-0.3-0.1-0.4-0.2c-3.4-7.8-0.1-15.3,0-15.6c0.1-0.2,0.3-0.3,0.5-0.2
					c0.2,0.1,0.3,0.3,0.2,0.5c0,0.1-3.2,7.5,0,14.9c0.1,0.2,0,0.5-0.2,0.5C29.6,37.8,29.5,37.8,29.5,37.8z"/>
			</g>
			<circle class="st0" cx="33.4" cy="27.2" r="1.3"/>
		</g>
		<path class="st1" d="M24,3.4C24,3.4,23.9,3.4,24,3.4c-11,0-19.8,7.7-19.8,17.3c0,3.3,1,6.3,2.8,9c3.5-5,9.7-8.4,16.9-8.4
			c0,0,0.1,0,0.1,0V3.4z"/>
		<path class="st2" d="M23.9,3.4L23.9,3.4l0,17.9h0c7.2,0,13.4,3.3,16.9,8.4c1.8-2.6,2.8-5.7,2.8-9C43.7,11.2,34.8,3.4,23.9,3.4z"/>
		<path class="st3" d="M23.8,56C23.9,56,23.9,56,23.8,56c11,0,19.8-7.7,19.8-17.3c0-3.3-1-6.3-2.8-9c-3.5,5-9.7,8.4-16.9,8.4
			c0,0-0.1,0-0.1,0L23.8,56z"/>
		<path class="st4" d="M23.9,56L23.9,56l0-17.9h0c-7.2,0-13.4-3.3-16.9-8.4c-1.8,2.6-2.8,5.7-2.8,9C4.2,48.2,13,56,23.9,56z"/>
	</g>
	<g>
		<path class="st0" d="M67.8,10.2c-0.5-0.3-0.9-0.7-1.2-1.3c-0.3-0.5-0.4-1.1-0.4-1.8c0-0.6,0.1-1.2,0.4-1.8c0.3-0.5,0.7-1,1.2-1.3
			s1.1-0.5,1.7-0.5c0.4,0,0.8,0.1,1.2,0.2c0.3,0.1,0.7,0.3,1,0.6c0.1,0.1,0.1,0.1,0.1,0.2c0,0.1,0,0.1,0,0.2c0,0.1,0,0.2-0.1,0.3
			c-0.1,0.1-0.2,0.1-0.3,0.1c-0.1,0-0.2,0-0.3-0.1c-0.2-0.2-0.5-0.4-0.7-0.4c-0.2-0.1-0.5-0.1-0.9-0.1c-0.5,0-0.9,0.1-1.3,0.4
			c-0.4,0.2-0.7,0.6-0.9,1C67.2,6.2,67,6.6,67,7.1c0,0.5,0.1,0.9,0.3,1.4c0.2,0.4,0.5,0.7,0.9,1c0.4,0.2,0.8,0.4,1.3,0.4
			c0.6,0,1.1-0.2,1.6-0.6c0.1-0.1,0.2-0.1,0.3-0.1c0.1,0,0.2,0,0.3,0.1c0.1,0.1,0.1,0.2,0.1,0.3c0,0.1,0,0.2-0.1,0.3
			c-0.6,0.5-1.3,0.8-2.1,0.8C68.9,10.6,68.4,10.5,67.8,10.2z"/>
		<path class="st0" d="M73.8,10.3c-0.4-0.2-0.7-0.5-0.9-0.9c-0.2-0.4-0.3-0.8-0.3-1.3c0-0.5,0.1-0.9,0.3-1.3
			c0.2-0.4,0.5-0.7,0.9-0.9c0.4-0.2,0.8-0.3,1.3-0.3c0.5,0,0.9,0.1,1.2,0.3c0.4,0.2,0.7,0.5,0.9,0.9c0.2,0.4,0.3,0.8,0.3,1.3
			c0,0.5-0.1,0.9-0.3,1.3c-0.2,0.4-0.5,0.7-0.9,0.9c-0.4,0.2-0.8,0.3-1.2,0.3C74.6,10.6,74.1,10.5,73.8,10.3z M75.8,9.6
			c0.2-0.1,0.4-0.3,0.6-0.6c0.1-0.2,0.2-0.5,0.2-0.8c0-0.3-0.1-0.6-0.2-0.9c-0.1-0.3-0.3-0.4-0.6-0.6c-0.2-0.1-0.5-0.2-0.8-0.2
			s-0.6,0.1-0.8,0.2C74,6.8,73.8,7,73.7,7.3c-0.1,0.3-0.2,0.5-0.2,0.9c0,0.3,0.1,0.6,0.2,0.8c0.1,0.2,0.3,0.4,0.6,0.6
			s0.5,0.2,0.8,0.2S75.6,9.7,75.8,9.6z"/>
		<path class="st0" d="M85.1,6.2c0.3,0.3,0.5,0.8,0.5,1.4v2.5c0,0.1,0,0.2-0.1,0.3c-0.1,0.1-0.2,0.1-0.3,0.1c-0.1,0-0.2,0-0.3-0.1
			c-0.1-0.1-0.1-0.2-0.1-0.3V7.6c0-0.4-0.1-0.6-0.3-0.8c-0.2-0.2-0.4-0.3-0.7-0.3c-0.3,0-0.6,0.1-0.7,0.3c-0.2,0.2-0.3,0.5-0.3,0.8
			v2.5c0,0.1,0,0.2-0.1,0.3c-0.1,0.1-0.2,0.1-0.3,0.1c-0.1,0-0.2,0-0.3-0.1c-0.1-0.1-0.1-0.2-0.1-0.3V7.6c0-0.4-0.1-0.6-0.3-0.8
			c-0.2-0.2-0.4-0.3-0.7-0.3c-0.3,0-0.6,0.1-0.8,0.3c-0.2,0.2-0.3,0.5-0.3,0.8v2.5c0,0.1,0,0.2-0.1,0.3c-0.1,0.1-0.2,0.1-0.3,0.1
			c-0.1,0-0.2,0-0.3-0.1c-0.1-0.1-0.1-0.2-0.1-0.3V6.2c0-0.1,0-0.2,0.1-0.3c0.1-0.1,0.2-0.1,0.3-0.1c0.1,0,0.2,0,0.3,0.1
			c0.1,0.1,0.1,0.2,0.1,0.3C79.8,6,80,5.9,80.2,5.8c0.2-0.1,0.4-0.1,0.7-0.1c0.3,0,0.6,0.1,0.8,0.2c0.2,0.1,0.4,0.3,0.6,0.5
			c0.2-0.2,0.4-0.4,0.7-0.5c0.3-0.1,0.6-0.2,0.9-0.2C84.3,5.7,84.7,5.9,85.1,6.2z"/>
		<path class="st0" d="M87.9,10.3c-0.4-0.2-0.7-0.5-0.9-0.9c-0.2-0.4-0.3-0.8-0.3-1.3c0-0.5,0.1-0.9,0.3-1.3
			c0.2-0.4,0.5-0.7,0.9-0.9c0.4-0.2,0.8-0.3,1.3-0.3c0.5,0,0.9,0.1,1.2,0.3c0.4,0.2,0.7,0.5,0.9,0.9c0.2,0.4,0.3,0.8,0.3,1.3
			c0,0.5-0.1,0.9-0.3,1.3c-0.2,0.4-0.5,0.7-0.9,0.9c-0.4,0.2-0.8,0.3-1.2,0.3C88.7,10.6,88.3,10.5,87.9,10.3z M90,9.6
			c0.2-0.1,0.4-0.3,0.6-0.6c0.1-0.2,0.2-0.5,0.2-0.8c0-0.3-0.1-0.6-0.2-0.9C90.4,7,90.2,6.8,90,6.7c-0.2-0.1-0.5-0.2-0.8-0.2
			s-0.6,0.1-0.8,0.2C88.1,6.8,88,7,87.8,7.3c-0.1,0.3-0.2,0.5-0.2,0.9c0,0.3,0.1,0.6,0.2,0.8c0.1,0.2,0.3,0.4,0.6,0.6
			s0.5,0.2,0.8,0.2S89.7,9.7,90,9.6z"/>
		<path class="st0" d="M51.2,28.7c-0.3-0.3-0.4-0.6-0.4-1V9.4c0-0.4,0.1-0.7,0.4-1c0.3-0.3,0.6-0.4,1-0.4h5.4c1.3,0,2.5,0.3,3.6,0.9
			c1.1,0.6,1.9,1.4,2.5,2.5c0.6,1.1,0.9,2.3,0.9,3.6c0,1.3-0.3,2.5-0.9,3.5c-0.6,1-1.4,1.8-2.5,2.4c-1,0.6-2.2,0.9-3.6,0.9h-4v5.9
			c0,0.4-0.1,0.7-0.4,1c-0.3,0.3-0.6,0.4-1,0.4C51.8,29.1,51.4,28.9,51.2,28.7z M57.5,19.2c1.2,0,2.2-0.4,3-1.2
			c0.8-0.8,1.2-1.8,1.2-3c0-1.3-0.4-2.3-1.2-3.1c-0.8-0.8-1.8-1.2-3-1.2h-4v8.6H57.5z"/>
		<path class="st0" d="M79.6,22.3c-0.2,0.2-0.5,0.3-0.9,0.3H68.5c0.2,1.3,0.8,2.3,1.7,3c0.9,0.8,2.1,1.2,3.5,1.2
			c0.5,0,1.1-0.1,1.7-0.3c0.6-0.2,1.1-0.4,1.4-0.7c0.3-0.2,0.5-0.3,0.9-0.3s0.6,0.1,0.8,0.3c0.3,0.3,0.5,0.6,0.5,0.9
			c0,0.3-0.1,0.6-0.4,0.8c-0.6,0.5-1.4,0.9-2.3,1.2c-0.9,0.3-1.8,0.5-2.6,0.5c-1.5,0-2.8-0.3-4-1c-1.2-0.6-2.1-1.5-2.7-2.7
			c-0.7-1.1-1-2.4-1-3.8c0-1.4,0.3-2.7,0.9-3.9c0.6-1.1,1.5-2,2.6-2.7c1.1-0.6,2.4-1,3.8-1c1.4,0,2.6,0.3,3.6,0.9
			c1,0.6,1.8,1.5,2.3,2.6c0.5,1.1,0.8,2.4,0.8,3.8C79.9,21.8,79.8,22.1,79.6,22.3z M70.1,17.6c-0.8,0.7-1.3,1.7-1.5,2.9h9
			c-0.2-1.2-0.6-2.2-1.3-2.9c-0.7-0.7-1.7-1.1-2.9-1.1C71.9,16.5,70.9,16.9,70.1,17.6z"/>
		<path class="st0" d="M94.5,27.8c0,0.8-0.4,1.3-1.3,1.3H84c-0.8,0-1.3-0.4-1.3-1.3c0-0.4,0.1-0.6,0.2-0.9l7.6-10.1h-6.9
			c-0.8,0-1.3-0.4-1.3-1.3c0-0.8,0.4-1.3,1.3-1.3h9.2c0.8,0,1.3,0.4,1.3,1.3c0,0.4-0.1,0.6-0.2,0.9l-7.6,10.1h6.8
			C94.1,26.5,94.5,27,94.5,27.8z"/>
		<path class="st0" d="M69.3,35.6c-0.1,0.1-0.2,0.1-0.3,0.1h-3.7c0.1,0.5,0.3,0.8,0.6,1.1c0.3,0.3,0.8,0.4,1.2,0.4
			c0.2,0,0.4,0,0.6-0.1c0.2-0.1,0.4-0.2,0.5-0.3c0.1-0.1,0.2-0.1,0.3-0.1c0.1,0,0.2,0,0.3,0.1c0.1,0.1,0.2,0.2,0.2,0.3
			c0,0.1-0.1,0.2-0.2,0.3c-0.2,0.2-0.5,0.3-0.8,0.4c-0.3,0.1-0.6,0.2-0.9,0.2c-0.5,0-1-0.1-1.4-0.3c-0.4-0.2-0.7-0.5-1-0.9
			c-0.2-0.4-0.4-0.9-0.4-1.4c0-0.5,0.1-1,0.3-1.4c0.2-0.4,0.5-0.7,0.9-1c0.4-0.2,0.8-0.3,1.3-0.3c0.5,0,0.9,0.1,1.3,0.3
			c0.4,0.2,0.6,0.5,0.8,0.9c0.2,0.4,0.3,0.8,0.3,1.3C69.4,35.4,69.4,35.5,69.3,35.6z M65.9,33.9c-0.3,0.3-0.5,0.6-0.6,1h3.2
			c-0.1-0.4-0.2-0.8-0.5-1c-0.3-0.3-0.6-0.4-1-0.4C66.6,33.5,66.2,33.7,65.9,33.9z"/>
		<path class="st0" d="M74.5,33c0.4,0.2,0.6,0.5,0.8,0.8c0.2,0.4,0.3,0.8,0.3,1.3v2.4c0,0.1,0,0.3-0.1,0.4C75.4,38,75.3,38,75.2,38
			c-0.1,0-0.3,0-0.4-0.1c-0.1-0.1-0.1-0.2-0.1-0.4v-2.4c0-0.5-0.1-0.9-0.4-1.2c-0.3-0.3-0.7-0.4-1.1-0.4c-0.3,0-0.5,0.1-0.7,0.2
			c-0.2,0.1-0.4,0.3-0.5,0.4c-0.1,0.2-0.2,0.4-0.2,0.6v2.7c0,0.1,0,0.3-0.1,0.4C71.5,38,71.3,38,71.2,38c-0.1,0-0.3,0-0.4-0.1
			c-0.1-0.1-0.1-0.2-0.1-0.4v-4.3c0-0.1,0-0.3,0.1-0.4c0.1-0.1,0.2-0.1,0.4-0.1c0.1,0,0.3,0,0.4,0.1c0.1,0.1,0.1,0.2,0.1,0.4v0.1
			c0.2-0.2,0.5-0.4,0.7-0.5c0.3-0.1,0.6-0.2,0.9-0.2C73.8,32.7,74.2,32.8,74.5,33z"/>
		<path class="st0" d="M83.3,35.5c-0.1,0.1-0.2,0.1-0.3,0.1h-3.7c0.1,0.4,0.3,0.8,0.6,1.1c0.3,0.3,0.8,0.4,1.2,0.4
			c0.2,0,0.4,0,0.6-0.1c0.2-0.1,0.4-0.2,0.5-0.3c0.1-0.1,0.2-0.1,0.3-0.1c0.1,0,0.2,0,0.3,0.1C83,36.9,83,37,83,37.1
			c0,0.1-0.1,0.2-0.2,0.3c-0.2,0.2-0.5,0.3-0.8,0.4c-0.3,0.1-0.6,0.2-0.9,0.2c-0.5,0-1-0.1-1.4-0.3c-0.4-0.2-0.7-0.5-1-1
			c-0.2-0.4-0.4-0.9-0.4-1.4s0.1-1,0.3-1.4c0.2-0.4,0.5-0.7,0.9-1c0.4-0.2,0.8-0.3,1.3-0.3c0.5,0,0.9,0.1,1.3,0.3
			c0.4,0.2,0.6,0.5,0.8,0.9c0.2,0.4,0.3,0.8,0.3,1.3C83.4,35.4,83.3,35.5,83.3,35.5z M79.8,33.9c-0.3,0.3-0.5,0.6-0.6,1h3.2
			c-0.1-0.4-0.2-0.8-0.5-1c-0.3-0.3-0.6-0.4-1-0.4C80.5,33.5,80.1,33.6,79.8,33.9z"/>
		<path class="st0" d="M85.1,37.7c-0.2-0.2-0.4-0.4-0.5-0.6c-0.1-0.3-0.2-0.6-0.2-0.9v-5.3c0-0.1,0-0.3,0.1-0.3
			c0.1-0.1,0.2-0.1,0.3-0.1c0.1,0,0.3,0,0.3,0.1c0.1,0.1,0.1,0.2,0.1,0.3v5.3c0,0.2,0,0.4,0.1,0.6c0.1,0.2,0.2,0.2,0.3,0.2h0.2
			c0.1,0,0.2,0,0.3,0.1c0.1,0.1,0.1,0.2,0.1,0.3c0,0.1-0.1,0.3-0.2,0.3S86.1,38,85.9,38h0C85.6,38,85.4,37.9,85.1,37.7z"/>
		<path class="st0" d="M68.7,54.6c0,0.4-0.1,0.7-0.4,1c-0.3,0.3-0.6,0.4-1,0.4c-0.3,0-0.5-0.1-0.8-0.2c-0.2-0.2-0.4-0.4-0.5-0.6
			l-1.5-3.8h-9.7l-1.5,3.8c-0.1,0.3-0.3,0.5-0.5,0.6C52.5,55.9,52.2,56,52,56c-0.4,0-0.7-0.1-1-0.4c-0.3-0.3-0.4-0.6-0.4-1
			c0-0.2,0-0.4,0.1-0.6l7.6-18.1c0.3-0.6,0.7-0.9,1.3-0.9c0.6,0,1.1,0.3,1.3,0.9L68.5,54C68.6,54.3,68.7,54.5,68.7,54.6z M55.7,49
			h7.8l-3.8-9.6L55.7,49z"/>
		<path class="st0" d="M84.6,41.6c0.3,0.3,0.4,0.6,0.4,1v12c0,0.4-0.1,0.7-0.4,1c-0.3,0.3-0.6,0.4-1,0.4c-0.4,0-0.7-0.1-1-0.4
			c-0.3-0.3-0.4-0.6-0.4-1v-0.3c-0.6,0.6-1.3,1-2,1.3c-0.8,0.3-1.6,0.5-2.5,0.5c-1.2,0-2.4-0.3-3.3-0.8c-1-0.5-1.8-1.3-2.3-2.4
			c-0.6-1-0.8-2.3-0.8-3.7v-6.6c0-0.4,0.1-0.7,0.4-1c0.3-0.3,0.6-0.4,1-0.4s0.7,0.1,1,0.4c0.3,0.3,0.4,0.6,0.4,1v6.6
			c0,1.5,0.4,2.6,1.2,3.3c0.8,0.7,1.8,1.1,3.1,1.1c0.8,0,1.4-0.2,2.1-0.5c0.6-0.3,1.1-0.7,1.5-1.2c0.4-0.5,0.5-1.1,0.5-1.8v-7.6
			c0-0.4,0.1-0.7,0.4-1c0.3-0.3,0.6-0.4,1-0.4C84,41.2,84.3,41.4,84.6,41.6z"/>
		<path class="st0" d="M91.2,55.4c-0.6-0.4-1.1-1-1.4-1.8c-0.3-0.8-0.5-1.6-0.5-2.6V36.3c0-0.4,0.1-0.7,0.4-1c0.3-0.3,0.6-0.4,1-0.4
			c0.4,0,0.7,0.1,1,0.4c0.3,0.3,0.4,0.6,0.4,1V51c0,0.7,0.1,1.2,0.4,1.6c0.3,0.4,0.6,0.6,1,0.6H94c0.4,0,0.7,0.1,0.9,0.4
			c0.2,0.3,0.3,0.6,0.3,1c0,0.4-0.2,0.7-0.5,1c-0.3,0.3-0.8,0.4-1.3,0.4h-0.1C92.5,56,91.9,55.8,91.2,55.4z"/>
		<path class="st0" d="M107.5,42.1c1.1,0.7,2,1.6,2.7,2.7c0.7,1.1,1,2.4,1,3.8v6c0,0.4-0.1,0.7-0.4,1c-0.3,0.3-0.6,0.4-1,0.4
			s-0.7-0.1-1-0.4c-0.3-0.3-0.4-0.6-0.4-1v-1c-0.6,0.8-1.4,1.4-2.3,1.8c-0.9,0.4-1.9,0.6-2.9,0.6c-1.3,0-2.5-0.3-3.5-1
			s-1.9-1.5-2.5-2.7c-0.6-1.1-0.9-2.4-0.9-3.8c0-1.4,0.3-2.7,1-3.8c0.6-1.1,1.5-2,2.7-2.7c1.1-0.7,2.4-1,3.8-1
			S106.4,41.5,107.5,42.1z M106.2,53c0.7-0.4,1.3-1,1.7-1.8c0.4-0.8,0.6-1.6,0.6-2.6c0-1-0.2-1.8-0.6-2.6c-0.4-0.8-1-1.4-1.7-1.8
			c-0.7-0.4-1.5-0.7-2.4-0.7s-1.7,0.2-2.4,0.7c-0.7,0.4-1.3,1-1.7,1.8S99,47.7,99,48.6c0,1,0.2,1.8,0.6,2.6c0.4,0.8,1,1.4,1.7,1.8
			c0.7,0.4,1.5,0.7,2.4,0.7S105.5,53.4,106.2,53z"/>
	</g>
</g>
</svg>
