<?xml version="1.0" encoding="utf-8"?>
<!-- Generator: Adobe Illustrator 24.0.0, SVG Export Plug-In . SVG Version: 6.00 Build 0)  -->
<svg version="1.1" id="Capa_1" xmlns="http://www.w3.org/2000/svg" xmlns:xlink="http://www.w3.org/1999/xlink" x="0px" y="0px"
	 viewBox="0 0 30.3 30.3" style="enable-background:new 0 0 30.3 30.3;" xml:space="preserve">
<style type="text/css">
	.st0{fill:#FFFFFF;}
	.st1{fill:#EC1555;}
	.st2{fill:#0CBAC6;}
</style>
<g>
	<circle cx="15.2" cy="15.2" r="14"/>
	<g>
		<g>
			<path class="st0" d="M11.4,20.8C11.5,20.8,11.5,20.8,11.4,20.8c0.2,0.2,0.3,0.3,0.5,0.4c0.5,0.4,1,0.6,1.6,0.6
				c1.4,0.1,2.6-1,2.8-2.4c0-0.1,0-0.1,0-0.2c0-4.2,0-8.4,0-12.6c0-0.3,0-0.3,0.3-0.3c0.6,0,1.3,0,1.9,0c0.1,0,0.1,0,0.2,0
				c0,0,0,0,0,0c0,0,0,0.1,0,0.1c0.2,1.1,0.8,2,1.8,2.7c0.1,0,0.1,0.1,0.2,0.1c0,0,0.1,0.1,0.1,0.1c0.2,0.1,0.3,0.2,0.4,0.3
				c0.5,0.4,1.1,0.7,1.7,0.9c0.1,0,0.1,0,0.2,0.1c0,0,0,0,0,0c0,0,0,0.1,0,0.1c0,0.7,0,1.5,0,2.2c0,0.2,0,0.2-0.2,0.2
				c-0.5,0-1.1-0.1-1.6-0.2c-0.9-0.2-1.7-0.6-2.5-1.1c0,0-0.1-0.1-0.1-0.1c-0.1,0,0,0.1,0,0.1c0,2.1,0,4.2,0,6.2
				c0,1.5-0.5,2.8-1.4,3.9c-1,1.2-2.3,1.9-3.8,2c-1.2,0.1-2.3-0.1-3.4-0.6c-0.2-0.1-0.3-0.2-0.5-0.3c0,0-0.1-0.1-0.1-0.1
				C9,23,8.7,22.6,8.5,22.2c-0.4-0.6-0.6-1.3-0.7-2c-0.1-0.4-0.1-0.8-0.1-1.2c0.1-1.3,0.5-2.5,1.4-3.5c0.7-0.9,1.6-1.5,2.7-1.8
				c0.4-0.2,0.9-0.2,1.4-0.3c0.1,0,0.2,0,0.3,0c0,0,0.1,0,0.1,0c0,0,0,0,0,0c0,0,0,0.1,0,0.1c0,0.7,0,1.5,0,2.2c0,0,0,0.1,0,0.1
				c0,0.1,0,0.1-0.1,0.1c-0.2-0.1-0.4-0.1-0.6-0.1c-0.3,0-0.7,0-1,0.1c-1,0.4-1.7,1.1-1.8,2.2c-0.1,1.1,0.3,1.9,1.2,2.5
				C11.3,20.7,11.4,20.7,11.4,20.8z"/>
			<path class="st1" d="M9.5,23.4C9.5,23.4,9.6,23.4,9.5,23.4c0.8,0.4,1.5,0.7,2.3,0.8c0.4,0.1,0.8,0.1,1.2,0.1
				c1.3-0.1,2.5-0.5,3.5-1.3c1-0.8,1.6-1.8,2-3.1c0.1-0.4,0.2-0.8,0.2-1.2c0-0.2,0-0.5,0-0.7c0-2,0-4,0-5.9c0,0,0-0.1,0-0.1
				c0.1,0,0.1,0,0.1,0c0.7,0.5,1.5,0.8,2.3,1.1c0.5,0.1,0.9,0.2,1.4,0.2c0.2,0,0.4,0,0.6,0c0.1,0,0.1,0,0.1-0.1c0-0.1,0-0.2,0-0.3
				c0-0.7,0-1.3,0-2c0,0,0-0.1,0-0.1c0.2,0,0.4,0.1,0.5,0.1c0.1,0,0.2,0,0.3,0c0.1,0,0.1,0,0.1,0.1c0,0,0,0,0,0.1c0,1,0,1.9,0,2.9
				c0,0,0,0,0,0.1c0,0.1,0,0.1-0.1,0.1c-0.3,0-0.6,0-0.9-0.1c-0.6-0.1-1.2-0.2-1.8-0.5c-0.6-0.2-1.1-0.5-1.6-0.8c0,0-0.1,0-0.1-0.1
				c0,0.1,0,0.1,0,0.1c0,2.1,0,4.2,0,6.4c0,1.1-0.3,2.2-0.9,3.1c-0.7,1.2-1.7,2-3,2.4c-0.8,0.3-1.6,0.4-2.4,0.3
				C11.8,25,10.6,24.4,9.5,23.4C9.5,23.5,9.5,23.4,9.5,23.4z"/>
			<path class="st2" d="M18.6,6.4c0,0-0.1,0-0.1,0c-0.7,0-1.4,0-2,0c-0.2,0-0.2,0-0.2,0.2c0,4.2,0,8.3,0,12.5c0,0.3,0,0.6-0.1,0.9
				c-0.3,1-1,1.6-2,1.8c-1.1,0.2-2-0.1-2.7-0.9c0,0,0,0,0,0c0.2,0.1,0.4,0.2,0.6,0.2c0.7,0.1,1.4,0,2-0.3c0.7-0.4,1.1-1.1,1.3-1.9
				c0-0.2,0-0.3,0-0.5c0-4.2,0-8.3,0-12.5c0-0.2,0-0.2,0.2-0.2c1,0,1.9,0,2.9,0c0,0,0,0,0.1,0c0.1,0,0.1,0,0.1,0.1
				C18.6,6,18.6,6.2,18.6,6.4z"/>
			<path class="st2" d="M13.5,13.3c-0.6,0-1.2,0.1-1.7,0.3c-0.8,0.3-1.5,0.7-2.2,1.3c-0.8,0.8-1.4,1.7-1.7,2.7
				c-0.1,0.4-0.2,0.8-0.2,1.2c0,0.2,0,0.5,0,0.7c0,0.7,0.2,1.3,0.4,1.9c0.3,0.7,0.7,1.3,1.2,1.8c0,0,0,0,0,0c-0.1,0-0.2-0.1-0.3-0.2
				c-1-0.8-1.6-1.7-2-2.9c-0.1-0.4-0.2-0.8-0.2-1.2c0-0.3,0-0.6,0-0.9c0-0.7,0.2-1.4,0.5-2c0.3-0.7,0.7-1.3,1.2-1.8
				c0.6-0.6,1.3-1.1,2.1-1.3c0.5-0.2,1-0.3,1.6-0.3c0.4,0,0.8,0,1.2,0c0.1,0,0.1,0,0.1,0.1C13.5,12.9,13.5,13.1,13.5,13.3z"/>
			<path class="st1" d="M11.4,20.8c-0.2-0.1-0.4-0.3-0.6-0.4c-0.5-0.4-0.7-1-0.8-1.6c-0.2-1.4,0.7-2.5,1.9-2.9c0.5-0.2,1-0.2,1.5,0
				c0,0,0.1,0,0.1,0c0,0,0-0.1,0-0.1c0-0.8,0-1.5,0-2.3c0,0,0-0.1,0-0.1c0.3,0,0.6,0,0.9,0c0,0,0.1,0,0.1,0.1c0,0,0,0,0,0.1
				c0,1,0,2,0,3c0,0,0,0.1,0,0.1c-0.1,0-0.3-0.1-0.4-0.1c-0.8-0.1-1.5,0.1-2.1,0.6c-0.5,0.4-0.9,1-1,1.7
				C10.8,19.4,11,20.1,11.4,20.8C11.4,20.7,11.4,20.8,11.4,20.8z"/>
			<path class="st1" d="M20.6,9.4c-0.3-0.2-0.5-0.4-0.8-0.6c-0.6-0.6-1-1.4-1.2-2.3c0,0,0,0,0,0c0.3,0,0.5,0,0.8,0
				c0,0,0.1,0,0.1,0.1c0,0,0,0,0,0.1c0,0.8,0.2,1.5,0.6,2.1C20.2,8.9,20.4,9.1,20.6,9.4C20.6,9.4,20.6,9.4,20.6,9.4z"/>
			<path class="st2" d="M23,10.8c-0.8-0.2-1.5-0.5-2.1-1c-0.1-0.1-0.2-0.2-0.2-0.2c0,0,0,0,0.1,0c0.5,0.3,1,0.4,1.5,0.5
				c0.2,0,0.4,0.1,0.6,0.1c0.1,0,0.1,0,0.1,0.1C23.1,10.4,23.1,10.6,23,10.8z"/>
		</g>
	</g>
</g>
</svg>
