<?xml version="1.0" encoding="utf-8"?>
<!-- Generator: Adobe Illustrator 24.0.0, SVG Export Plug-In . SVG Version: 6.00 Build 0)  -->
<svg version="1.1" id="Capa_1" xmlns="http://www.w3.org/2000/svg" xmlns:xlink="http://www.w3.org/1999/xlink" x="0px" y="0px"
	 viewBox="0 0 30.3 30.3" style="enable-background:new 0 0 30.3 30.3;" xml:space="preserve">
<style type="text/css">
	.st0{fill:#FD0000;}
	.st1{fill:#FFFFFF;}
</style>
<g>
	<circle class="st0" cx="15.2" cy="15.2" r="14"/>
	<path class="st1" d="M24.1,10.7c-0.2-0.8-0.8-1.4-1.7-1.7c-1.5-0.4-7.3-0.4-7.3-0.4S9.3,8.6,7.9,9c-0.8,0.2-1.4,0.8-1.7,1.7
		c-0.4,1.5-0.4,4.5-0.4,4.5s0,3,0.4,4.5c0.2,0.8,0.8,1.4,1.7,1.7c1.5,0.4,7.3,0.4,7.3,0.4s5.8,0,7.3-0.4c0.8-0.2,1.4-0.8,1.7-1.7
		c0.4-1.5,0.4-4.5,0.4-4.5S24.5,12.1,24.1,10.7z M13.3,18v-5.6l4.8,2.8L13.3,18z"/>
</g>
</svg>
