<?xml version="1.0" encoding="utf-8"?>
<!-- Generator: Adobe Illustrator 24.0.0, SVG Export Plug-In . SVG Version: 6.00 Build 0)  -->
<svg version="1.1" id="Capa_1" xmlns="http://www.w3.org/2000/svg" xmlns:xlink="http://www.w3.org/1999/xlink" x="0px" y="0px"
	 viewBox="0 0 30.3 30.3" style="enable-background:new 0 0 30.3 30.3;" xml:space="preserve">
<style type="text/css">
	.st0{fill:#1677F0;}
	.st1{fill:#FFFFFF;}
</style>
<g>
	<path class="st0" d="M29.2,15.2c0-7.7-6.3-14-14-14s-14,6.3-14,14C1.2,22.2,6.3,28,13,29v-9.8H9.4v-4H13v-3.1
		c0-3.5,2.1-5.4,5.3-5.4c1.5,0,3.1,0.3,3.1,0.3v3.4h-1.8c-1.7,0-2.3,1.1-2.3,2.2v2.6h3.9l-0.6,4h-3.3V29
		C24.1,28,29.2,22.2,29.2,15.2z"/>
	<path class="st1" d="M20.6,19.2l0.6-4h-3.9v-2.6c0-1.1,0.5-2.2,2.3-2.2h1.8V6.9c0,0-1.6-0.3-3.1-0.3c-3.2,0-5.3,1.9-5.3,5.4v3.1
		H9.4v4H13V29c0.7,0.1,1.4,0.2,2.2,0.2s1.5-0.1,2.2-0.2v-9.8H20.6z"/>
</g>
</svg>
