<?xml version="1.0" encoding="utf-8"?>
<!-- Generator: Adobe Illustrator 24.0.0, SVG Export Plug-In . SVG Version: 6.00 Build 0)  -->
<svg version="1.1" id="Capa_1" xmlns="http://www.w3.org/2000/svg" xmlns:xlink="http://www.w3.org/1999/xlink" x="0px" y="0px"
	 viewBox="0 0 30.3 30.3" style="enable-background:new 0 0 30.3 30.3;" xml:space="preserve">
<style type="text/css">
	.st0{fill:url(#SVGID_1_);}
	.st1{fill:#FFFFFF;}
</style>
<linearGradient id="SVGID_1_" gradientUnits="userSpaceOnUse" x1="21.6638" y1="1.7489" x2="8.5238" y2="28.9289">
	<stop  offset="0" style="stop-color:#5750D5"/>
	<stop  offset="0.492" style="stop-color:#FF3280"/>
	<stop  offset="1" style="stop-color:#FFDB71"/>
</linearGradient>
<circle class="st0" cx="15.2" cy="15.2" r="14"/>
<g>
	<g>
		<path class="st1" d="M15.2,7.9c2.4,0,2.6,0,3.6,0.1c0.9,0,1.3,0.2,1.6,0.3c0.4,0.2,0.7,0.4,1,0.7c0.3,0.3,0.5,0.6,0.7,1
			c0.1,0.3,0.3,0.8,0.3,1.6c0,0.9,0.1,1.2,0.1,3.6s0,2.6-0.1,3.6c0,0.9-0.2,1.3-0.3,1.6c-0.2,0.4-0.4,0.7-0.7,1
			c-0.3,0.3-0.6,0.5-1,0.7c-0.3,0.1-0.8,0.3-1.6,0.3c-0.9,0-1.2,0.1-3.6,0.1c-2.4,0-2.6,0-3.6-0.1c-0.9,0-1.3-0.2-1.6-0.3
			c-0.4-0.2-0.7-0.4-1-0.7c-0.3-0.3-0.5-0.6-0.7-1C8.2,20.1,8,19.6,8,18.7c0-0.9-0.1-1.2-0.1-3.6s0-2.6,0.1-3.6
			c0-0.9,0.2-1.3,0.3-1.6C8.5,9.6,8.7,9.3,9,9c0.3-0.3,0.6-0.5,1-0.7C10.3,8.2,10.8,8,11.6,8C12.5,8,12.8,7.9,15.2,7.9 M15.2,6.4
			c-2.4,0-2.7,0-3.6,0.1c-0.9,0-1.6,0.2-2.1,0.4C8.8,7,8.3,7.3,7.8,7.8c-0.5,0.5-0.8,1-1,1.6c-0.2,0.6-0.4,1.2-0.4,2.1
			c0,0.9-0.1,1.2-0.1,3.6c0,2.4,0,2.7,0.1,3.6c0,0.9,0.2,1.6,0.4,2.1c0.2,0.6,0.5,1.1,1,1.6c0.5,0.5,1,0.8,1.6,1
			c0.6,0.2,1.2,0.4,2.1,0.4c0.9,0,1.2,0.1,3.6,0.1c2.4,0,2.7,0,3.6-0.1c0.9,0,1.6-0.2,2.1-0.4c0.6-0.2,1.1-0.5,1.6-1
			c0.5-0.5,0.8-1,1-1.6c0.2-0.6,0.4-1.2,0.4-2.1c0-0.9,0.1-1.2,0.1-3.6s0-2.7-0.1-3.6c0-0.9-0.2-1.6-0.4-2.1c-0.2-0.6-0.5-1.1-1-1.6
			c-0.5-0.5-1-0.8-1.6-1c-0.6-0.2-1.2-0.4-2.1-0.4C17.9,6.4,17.6,6.4,15.2,6.4L15.2,6.4z"/>
		<path class="st1" d="M15.2,10.6c-2.5,0-4.5,2-4.5,4.5s2,4.5,4.5,4.5c2.5,0,4.5-2,4.5-4.5S17.7,10.6,15.2,10.6z M15.2,18.1
			c-1.6,0-2.9-1.3-2.9-2.9s1.3-2.9,2.9-2.9s2.9,1.3,2.9,2.9S16.8,18.1,15.2,18.1z"/>
		<circle class="st1" cx="19.9" cy="10.5" r="1.1"/>
	</g>
</g>
</svg>
