<?xml version="1.0" encoding="utf-8"?>
<!-- Generator: Adobe Illustrator 24.0.0, SVG Export Plug-In . SVG Version: 6.00 Build 0)  -->
<svg version="1.1" id="Capa_1" xmlns="http://www.w3.org/2000/svg" xmlns:xlink="http://www.w3.org/1999/xlink" x="0px" y="0px"
	 viewBox="0 0 89.3 28.6" style="enable-background:new 0 0 89.3 28.6;" xml:space="preserve">
<style type="text/css">
	.st0{fill:#FFFFFF;}
	.st1{fill:#75B7D1;}
</style>
<g>
	<circle class="st0" cx="7.7" cy="3.1" r="1"/>
	<circle class="st0" cx="80.6" cy="25.9" r="1"/>
	<g>
		<path class="st0" d="M60.6,28.4c-5.5,0-11.5-0.4-17.6-1.1c-11.8-1.5-22.6-4.2-30.7-7.6C4.3,16.1,0.1,12.3,0.5,8.8S6,2.6,14.7,1.2
			c8.6-1.4,19.8-1.3,31.6,0.2C58,2.8,68.9,5.6,77,9c8.1,3.5,12.3,7.3,11.8,10.8l-0.2,0l0.2,0c-0.4,3.5-5.5,6.2-14.1,7.6
			C70.5,28.1,65.7,28.4,60.6,28.4z M28.7,0.6C12.9,0.6,1.5,3.7,0.9,8.8c-0.9,7,18.1,15.1,42.2,18.1c11.7,1.5,22.9,1.5,31.5,0.2
			c8.5-1.4,13.5-3.9,13.9-7.3l0,0c0.4-3.3-3.7-7-11.6-10.5c-8-3.4-18.8-6.2-30.6-7.6C40.1,0.9,34.1,0.6,28.7,0.6z"/>
	</g>
	<g>
		<path class="st0" d="M49.4,27.4c-1.7,0-3.4,0-5.2-0.1c-11.8-0.4-22.9-2.1-31.2-4.8c-8.4-2.7-12.9-6.2-12.8-9.7
			C0.3,9.3,5.1,6.2,13.6,4c8.5-2.2,19.6-3.1,31.5-2.7C57,1.7,68,3.4,76.3,6.1c8.4,2.7,12.9,6.2,12.8,9.7c-0.1,3.5-4.9,6.6-13.4,8.8
			C68.5,26.5,59.3,27.4,49.4,27.4z M40,1.5C18,1.5,0.8,6.3,0.6,12.8c-0.1,3.4,4.3,6.7,12.6,9.4c8.3,2.7,19.3,4.4,31.1,4.8
			c24.3,0.8,44.3-4.2,44.5-11.2C89,8.8,69.4,2.4,45.1,1.6C43.4,1.6,41.6,1.5,40,1.5z"/>
	</g>
	<g>
		<path class="st0" d="M72.7,22.2H16.2c-1.5,0-2.7-1.2-2.7-2.7V9c0-1.5,1.2-2.7,2.7-2.7h56.5c1.5,0,2.7,1.2,2.7,2.7v10.6
			C75.4,21,74.2,22.2,72.7,22.2z"/>
		<g>
			<path class="st1" d="M32.1,8.4v4.9h-0.4l-3-4.3v4.3h-0.4V8.4h0.4l3,4.3V8.4H32.1z"/>
			<path class="st1" d="M37.3,8.4v3.1c0,1.2-0.7,1.9-1.7,1.9c-1.1,0-1.7-0.8-1.7-1.9V8.4h0.4v3.1c0,1,0.5,1.6,1.4,1.6
				c0.9,0,1.4-0.6,1.4-1.6V8.4H37.3z"/>
			<path class="st1" d="M41.7,13v0.4H39V8.4h2.7v0.4h-2.3v1.8h2.1V11h-2.1v2H41.7z"/>
			<path class="st1" d="M46.2,12c0,0.7-0.5,1.4-1.6,1.4c-0.9,0-1.5-0.6-1.7-1.1l0.4-0.1c0.1,0.4,0.6,0.9,1.3,0.9
				c0.7,0,1.2-0.4,1.2-1c0-0.6-0.5-0.8-1.2-1c-0.7-0.2-1.5-0.4-1.5-1.4c0-0.8,0.7-1.4,1.4-1.4c0.7,0,1.2,0.4,1.4,1l-0.4,0.1
				c-0.2-0.5-0.5-0.7-1.1-0.7c-0.6,0-1,0.4-1,1c0,0.6,0.5,0.8,1.2,1C45.4,10.9,46.2,11.1,46.2,12z"/>
			<path class="st1" d="M50.3,8.8H49v4.6h-0.4V8.8h-1.3V8.4h3.1V8.8z"/>
			<path class="st1" d="M54.8,13.4l-1.3-2.1c-0.1,0-0.2,0-0.3,0h-1v2.1h-0.4V8.4h1.4c1.1,0,1.7,0.5,1.7,1.4c0,0.7-0.4,1.2-1,1.3
				l1.3,2.2H54.8z M53.2,10.9c0.9,0,1.4-0.4,1.4-1.1c0-0.7-0.5-1.1-1.4-1.1h-1v2.1H53.2z"/>
			<path class="st1" d="M59.4,12h-2.3l-0.5,1.4h-0.4L58,8.4h0.4l1.8,4.9h-0.4L59.4,12z M59.2,11.6l-1-2.6l-1,2.6H59.2z"/>
			<path class="st1" d="M21.6,15V20h-1v-3.3l-1.5,2.4h-0.3l-1.5-2.4V20h-1V15h1l1.6,2.5l1.6-2.5H21.6z"/>
			<path class="st1" d="M26,19.1V20h-2.9V15h2.9v0.9H24V17h1.7v0.9H24v1.2H26z"/>
			<path class="st1" d="M30.5,15.9h-1.2v4h-1v-4h-1.2V15h3.3V15.9z"/>
			<path class="st1" d="M36.4,17.5c0,1.4-1.1,2.6-2.5,2.6s-2.5-1.1-2.5-2.6c0-1.4,1.1-2.6,2.5-2.6S36.4,16.1,36.4,17.5z M35.4,17.5
				c0-0.8-0.5-1.6-1.6-1.6c-1,0-1.6,0.8-1.6,1.6c0,0.8,0.5,1.7,1.6,1.7C34.9,19.2,35.4,18.3,35.4,17.5z"/>
			<path class="st1" d="M41.8,17.5c0,1.5-1,2.5-2.6,2.5h-1.5V15h1.5C40.9,15,41.8,16.1,41.8,17.5z M40.9,17.5c0-1.1-0.8-1.6-1.7-1.6
				h-0.6v3.2h0.6C40.1,19.1,40.9,18.6,40.9,17.5z"/>
			<path class="st1" d="M48,17.5c0,1.4-1.1,2.6-2.5,2.6C44,20.1,43,19,43,17.5c0-1.4,1.1-2.6,2.5-2.6C46.9,14.9,48,16.1,48,17.5z
				 M47,17.5c0-0.8-0.5-1.6-1.6-1.6c-1,0-1.6,0.8-1.6,1.6c0,0.8,0.5,1.7,1.6,1.7C46.5,19.2,47,18.3,47,17.5z"/>
			<path class="st1" d="M52.2,19.1V20h-2.9V15h1v4.1H52.2z"/>
			<path class="st1" d="M58.1,17.5c0,1.4-1.1,2.6-2.5,2.6c-1.5,0-2.5-1.1-2.5-2.6c0-1.4,1.1-2.6,2.5-2.6
				C57.1,14.9,58.1,16.1,58.1,17.5z M57.2,17.5c0-0.8-0.5-1.6-1.6-1.6c-1,0-1.6,0.8-1.6,1.6c0,0.8,0.5,1.7,1.6,1.7
				C56.6,19.2,57.2,18.3,57.2,17.5z"/>
			<path class="st1" d="M64,17.2V20h-0.5l-0.1-0.7c-0.3,0.5-0.9,0.8-1.6,0.8c-1.5,0-2.5-1.1-2.5-2.6c0-1.4,1-2.6,2.5-2.6
				c0.8,0,1.5,0.3,2,0.9l-0.8,0.5c-0.3-0.3-0.6-0.5-1.2-0.5c-1,0-1.6,0.8-1.6,1.6c0,0.8,0.5,1.6,1.6,1.6c0.9,0,1.3-0.5,1.5-1.1h-1.4
				v-0.8H64z"/>
			<path class="st1" d="M66.4,15V20h-1V15H66.4z M67,13.4l-0.7,1h-0.7l0.5-1H67z"/>
			<path class="st1" d="M70.9,19h-2l-0.3,1h-1l1.8-4.9h1.2l1.8,4.9h-1L70.9,19z M70.6,18.1L69.9,16l-0.7,2.1H70.6z"/>
		</g>
	</g>
</g>
</svg>
